
<!-- Generator: visioncortex VTracer 0.6.4 -->
<svg version="1.1" xmlns="http://www.w3.org/2000/svg" viewBox="0 0 1024 1024" preserveAspectRatio="xMidYMid meet">
<path d="M0 0 C337.92 0 675.84 0 1024 0 C1024 337.92 1024 675.84 1024 1024 C686.08 1024 348.16 1024 0 1024 C0 686.08 0 348.16 0 0 Z " fill="#FEFEFE" transform="translate(0,0)"/>
<path d="M0 0 C1.234 -0.007 2.469 -0.014 3.741 -0.021 C7.086 -0.036 10.431 -0.038 13.776 -0.032 C16.589 -0.029 19.401 -0.035 22.214 -0.041 C28.86 -0.055 35.506 -0.053 42.153 -0.042 C48.964 -0.031 55.775 -0.045 62.587 -0.071 C68.476 -0.094 74.365 -0.1 80.254 -0.094 C83.754 -0.091 87.252 -0.093 90.752 -0.111 C115.098 -0.22 134.966 1.586 153.936 18.404 C154.561 18.935 155.187 19.466 155.831 20.013 C166.876 30.086 173.953 45.97 175.129 60.842 C175.208 63.474 175.229 66.101 175.227 68.735 C175.234 69.726 175.24 70.718 175.247 71.739 C175.266 74.995 175.27 78.25 175.272 81.506 C175.279 83.789 175.285 86.071 175.292 88.354 C175.304 93.134 175.308 97.913 175.307 102.693 C175.307 108.781 175.334 114.87 175.368 120.959 C175.391 125.674 175.395 130.389 175.394 135.104 C175.396 137.347 175.405 139.59 175.42 141.833 C175.556 163.424 172.77 181.886 157.255 198.224 C146.844 208.707 132.684 217.228 117.442 217.439 C114.351 217.4 111.261 217.331 108.171 217.263 C104.581 217.232 100.991 217.212 97.401 217.193 C94.946 217.167 92.49 217.12 90.036 217.051 C73.131 216.601 62.52 218.218 49.826 229.772 C46.732 232.444 43.324 234.6 39.874 236.779 C38.741 237.511 38.741 237.511 37.586 238.258 C31.097 242.33 24.558 246.32 17.999 250.279 C16.435 251.225 16.435 251.225 14.84 252.191 C-2.574 262.621 -2.574 262.621 -7.501 261.904 C-12.663 258.882 -12.663 258.882 -13.632 255.308 C-14.181 251.616 -14.187 247.981 -14.161 244.26 C-14.16 243.49 -14.159 242.72 -14.157 241.927 C-14.152 239.482 -14.139 237.037 -14.126 234.592 C-14.121 232.928 -14.117 231.265 -14.113 229.601 C-14.102 225.536 -14.084 221.47 -14.064 217.404 C-14.939 217.322 -14.939 217.322 -15.833 217.238 C-30.329 215.772 -44.46 209.401 -54.419 198.459 C-69.912 179.102 -72.383 160.517 -72.365 136.287 C-72.368 134.14 -72.373 131.994 -72.377 129.847 C-72.385 125.364 -72.385 120.881 -72.379 116.398 C-72.374 110.687 -72.391 104.976 -72.414 99.265 C-72.429 94.836 -72.429 90.408 -72.426 85.979 C-72.427 83.875 -72.432 81.771 -72.442 79.667 C-72.536 57.391 -69.354 37.004 -53.251 20.154 C-38.248 6.07 -20.382 -0.081 0 0 Z " fill="#1DACF3" transform="translate(163.063720703125,361.595947265625)"/>
<path d="M0 0 C1.379 0.003 2.759 0.004 4.138 0.004 C7.814 0.009 11.49 0.033 15.166 0.062 C18.228 0.084 21.29 0.094 24.352 0.105 C44.863 0.179 65.374 0.413 85.883 0.766 C87.043 0.785 88.203 0.804 89.399 0.824 C92.66 0.881 95.922 0.945 99.184 1.012 C100.598 1.037 100.598 1.037 102.04 1.062 C107.281 1.181 112.403 1.412 117.57 2.328 C117.9 2.988 118.23 3.648 118.57 4.328 C114.552 5.169 111.552 5.382 107.57 4.328 C107.57 5.978 107.57 7.628 107.57 9.328 C106.91 9.328 106.25 9.328 105.57 9.328 C105.57 8.668 105.57 8.008 105.57 7.328 C104.91 7.328 104.25 7.328 103.57 7.328 C103.302 7.926 103.034 8.524 102.758 9.141 C101.585 11.3 100.377 12.686 98.57 14.328 C98.9 14.988 99.23 15.648 99.57 16.328 C97.59 16.988 95.61 17.648 93.57 18.328 C93.57 19.318 93.57 20.308 93.57 21.328 C92.91 21.328 92.25 21.328 91.57 21.328 C91.24 22.318 90.91 23.308 90.57 24.328 C88.904 24.328 87.237 24.328 85.57 24.328 C85.9 25.318 86.23 26.308 86.57 27.328 C85.58 28.813 85.58 28.813 84.57 30.328 C84.57 29.338 84.57 28.348 84.57 27.328 C83.25 27.328 81.93 27.328 80.57 27.328 C80.323 27.947 80.075 28.566 79.82 29.203 C78.327 31.741 77.166 32.07 74.57 33.328 C72.836 35.361 72.836 35.361 71.57 37.328 C70.91 36.338 70.25 35.348 69.57 34.328 C69.57 34.988 69.57 35.648 69.57 36.328 C68.91 36.328 68.25 36.328 67.57 36.328 C67.24 38.638 66.91 40.948 66.57 43.328 C65.91 42.668 65.25 42.008 64.57 41.328 C61.645 41.105 61.645 41.105 59.57 42.328 C59.9 43.318 60.23 44.308 60.57 45.328 C59.91 45.328 59.25 45.328 58.57 45.328 C58.24 45.988 57.91 46.648 57.57 47.328 C57.57 46.668 57.57 46.008 57.57 45.328 C55.92 45.988 54.27 46.648 52.57 47.328 C52.57 48.648 52.57 49.968 52.57 51.328 C50.59 50.998 48.61 50.668 46.57 50.328 C46.24 51.318 45.91 52.308 45.57 53.328 C45.24 54.318 44.91 55.308 44.57 56.328 C43.25 56.328 41.93 56.328 40.57 56.328 C40.57 57.648 40.57 58.968 40.57 60.328 C38.59 60.328 36.61 60.328 34.57 60.328 C34.24 61.318 33.91 62.308 33.57 63.328 C31.591 65.019 29.591 66.686 27.57 68.328 C27.24 68.988 26.91 69.648 26.57 70.328 C25.237 70.661 23.904 70.995 22.57 71.328 C22.24 71.988 21.91 72.648 21.57 73.328 C20.518 73.637 20.518 73.637 19.445 73.953 C15.094 76.034 12.561 79.622 9.57 83.328 C8.952 83.163 8.333 82.998 7.695 82.828 C5.61 82.252 5.61 82.252 3.57 82.328 C3.075 83.813 3.075 83.813 2.57 85.328 C1.807 85.308 1.044 85.287 0.258 85.266 C-2.532 85.199 -2.532 85.199 -5.43 86.328 C-5.43 86.988 -5.43 87.648 -5.43 88.328 C-6.215 88.475 -7 88.622 -7.809 88.773 C-16.331 90.593 -21.556 93.018 -26.43 100.328 C-27.42 100.328 -28.41 100.328 -29.43 100.328 C-29.1 101.318 -28.77 102.308 -28.43 103.328 C-29.75 102.998 -31.07 102.668 -32.43 102.328 C-34.41 104.638 -36.39 106.948 -38.43 109.328 C-39.75 108.998 -41.07 108.668 -42.43 108.328 C-45.201 110.682 -45.201 110.682 -47.43 113.328 C-48.09 112.998 -48.75 112.668 -49.43 112.328 C-50.09 113.318 -50.75 114.308 -51.43 115.328 C-53.073 116.05 -54.74 116.722 -56.43 117.328 C-56.76 117.658 -57.09 117.988 -57.43 118.328 C-62.157 122.328 -62.157 122.328 -64.43 122.328 C-64.43 122.988 -64.43 123.648 -64.43 124.328 C-66.763 124.328 -69.096 124.328 -71.43 124.328 C-71.43 127.628 -71.43 130.928 -71.43 134.328 C-72.09 134.328 -72.75 134.328 -73.43 134.328 C-73.5 124.922 -73.553 115.515 -73.585 106.108 C-73.601 101.739 -73.622 97.37 -73.656 93 C-73.689 88.773 -73.707 84.546 -73.714 80.318 C-73.72 78.716 -73.731 77.114 -73.747 75.513 C-73.95 54.829 -69.384 35.53 -54.617 20.078 C-39.113 5.524 -20.982 -0.204 0 0 Z M98.57 9.328 C99.57 11.328 99.57 11.328 99.57 11.328 Z M82.57 24.328 C82.57 24.988 82.57 25.648 82.57 26.328 C83.23 25.998 83.89 25.668 84.57 25.328 C83.91 24.998 83.25 24.668 82.57 24.328 Z M76.57 28.328 C76.9 28.988 77.23 29.648 77.57 30.328 C77.9 29.668 78.23 29.008 78.57 28.328 C77.91 28.328 77.25 28.328 76.57 28.328 Z M63.57 36.328 C63.24 36.988 62.91 37.648 62.57 38.328 C63.89 37.998 65.21 37.668 66.57 37.328 C65.58 36.998 64.59 36.668 63.57 36.328 Z M55.57 42.328 C56.57 44.328 56.57 44.328 56.57 44.328 Z M41.57 51.328 C42.57 54.328 42.57 54.328 42.57 54.328 Z M12.57 74.328 C13.57 76.328 13.57 76.328 13.57 76.328 Z M-56.43 112.328 C-55.43 114.328 -55.43 114.328 -55.43 114.328 Z M109.57 0.328 C111.22 0.328 112.87 0.328 114.57 0.328 C114.57 0.658 114.57 0.988 114.57 1.328 C112.92 1.328 111.27 1.328 109.57 1.328 C109.57 0.998 109.57 0.668 109.57 0.328 Z M117.57 1.328 C119.57 2.328 119.57 2.328 119.57 2.328 Z M75.57 32.328 C76.56 32.658 77.55 32.988 78.57 33.328 C77.58 33.328 76.59 33.328 75.57 33.328 C75.57 32.998 75.57 32.668 75.57 32.328 Z " fill="#18C4E7" transform="translate(164.4296875,361.671875)"/>
<path d="M0 0 C3 1 3 1 3 1 Z M9 2 C11 3 11 3 11 3 Z M14 -62 C14.33 -62 14.66 -62 15 -62 C15.093 -49.351 15.164 -36.702 15.207 -24.053 C15.228 -18.178 15.256 -12.304 15.302 -6.429 C15.346 -0.749 15.369 4.931 15.38 10.611 C15.387 12.767 15.401 14.923 15.423 17.08 C15.63 38.427 12.638 56.688 -2.681 72.82 C-13.092 83.303 -27.252 91.824 -42.494 92.035 C-45.585 91.996 -48.675 91.927 -51.766 91.859 C-55.355 91.828 -58.945 91.808 -62.535 91.789 C-64.991 91.763 -67.446 91.716 -69.9 91.647 C-86.805 91.197 -97.417 92.814 -110.111 104.368 C-113.204 107.04 -116.612 109.196 -120.062 111.375 C-121.195 112.107 -121.195 112.107 -122.35 112.854 C-128.839 116.926 -135.379 120.915 -141.938 124.875 C-142.98 125.506 -144.022 126.137 -145.096 126.787 C-162.51 137.217 -162.51 137.217 -167.438 136.5 C-172.599 133.478 -172.599 133.478 -173.568 129.904 C-174.117 126.212 -174.124 122.577 -174.098 118.855 C-174.096 117.701 -174.096 117.701 -174.093 116.523 C-174.088 114.078 -174.075 111.633 -174.062 109.188 C-174.057 107.524 -174.053 105.861 -174.049 104.197 C-174.038 100.131 -174.021 96.066 -174 92 C-173.67 92 -173.34 92 -173 92 C-172.67 96.95 -172.34 101.9 -172 107 C-171.01 106.01 -171.01 106.01 -170 105 C-169.67 105 -169.34 105 -169 105 C-168.01 103.02 -168.01 103.02 -167 101 C-166.67 101 -166.34 101 -166 101 C-164.328 100.347 -162.661 99.681 -161 99 C-161.66 98.67 -162.32 98.34 -163 98 C-163 97.34 -163 96.68 -163 96 C-161.35 96 -159.7 96 -158 96 C-158.33 95.01 -158.66 94.02 -159 93 C-157.063 92.438 -157.063 92.438 -155 92 C-154.67 92.33 -154.34 92.66 -154 93 C-153.67 92.01 -153.34 91.02 -153 90 C-151.709 88.626 -150.374 87.291 -149 86 C-148.01 85.01 -148.01 85.01 -147 84 C-147 84.99 -147 85.98 -147 87 C-143.833 85.167 -143.833 85.167 -142 82 C-141.34 81.34 -140.68 80.68 -140 80 C-139.34 79.01 -138.68 78.02 -138 77 C-135.375 76.312 -135.375 76.312 -133 76 C-133 75.01 -133 74.02 -133 73 C-131.35 73.33 -129.7 73.66 -128 74 C-127.01 71.03 -127.01 71.03 -126 68 C-125.34 68.33 -124.68 68.66 -124 69 C-123.629 68.402 -123.257 67.804 -122.875 67.188 C-119.92 63.74 -116.238 62.413 -112 61 C-111.67 60.34 -111.34 59.68 -111 59 C-109.515 58.01 -109.515 58.01 -108 57 C-108 56.01 -108 55.02 -108 54 C-104.508 53.9 -101.406 54.222 -98 55 C-98.33 53.35 -98.66 51.7 -99 50 C-97.35 50 -95.7 50 -94 50 C-95.485 49.01 -95.485 49.01 -97 48 C-96.34 47.67 -95.68 47.34 -95 47 C-93.515 47.495 -93.515 47.495 -92 48 C-91.567 47.196 -91.134 46.391 -90.688 45.562 C-89 43 -89 43 -86 42 C-85.67 42.33 -85.34 42.66 -85 43 C-84.34 42.34 -83.68 41.68 -83 41 C-80.312 40.73 -77.709 40.913 -75 41 C-75.33 40.67 -75.66 40.34 -76 40 C-76.33 39.01 -76.66 38.02 -77 37 C-71.25 35.875 -71.25 35.875 -69 37 C-69 36.01 -69 35.02 -69 34 C-68.01 33.67 -67.02 33.34 -66 33 C-64.315 31.003 -64.315 31.003 -63 29 C-62.051 29.33 -61.103 29.66 -60.125 30 C-57.229 31.102 -57.229 31.102 -55 31 C-54.567 30.34 -54.134 29.68 -53.688 29 C-52 27 -52 27 -49.312 26.75 C-48.549 26.832 -47.786 26.915 -47 27 C-46.505 25.02 -46.505 25.02 -46 23 C-45.34 23.66 -44.68 24.32 -44 25 C-43.423 24.484 -42.845 23.969 -42.25 23.438 C-40 22 -40 22 -37.75 22.312 C-37.173 22.539 -36.595 22.766 -36 23 C-35.67 22.01 -35.34 21.02 -35 20 C-34.01 20.33 -33.02 20.66 -32 21 C-32 20.01 -32 19.02 -32 18 C-31.34 18 -30.68 18 -30 18 C-29.01 16.02 -29.01 16.02 -28 14 C-27.34 14 -26.68 14 -26 14 C-22.589 13.475 -20.944 12.962 -18 11 C-15.957 10.586 -15.957 10.586 -13.812 10.375 C-11.925 10.189 -11.925 10.189 -10 10 C-9.34 8.02 -8.68 6.04 -8 4 C-5.525 3.505 -5.525 3.505 -3 3 C-3 3.99 -3 4.98 -3 6 C-1.886 5.319 -0.773 4.639 0.375 3.938 C2.273 2.777 2.273 2.777 4 2 C4.66 2.33 5.32 2.66 6 3 C6.99 3.33 7.98 3.66 9 4 C9.66 3.34 10.32 2.68 11 2 C11.66 1.67 12.32 1.34 13 1 C13.33 -19.79 13.66 -40.58 14 -62 Z M-121 66 C-121 66.66 -121 67.32 -121 68 C-119.68 67.67 -118.36 67.34 -117 67 C-118.32 66.67 -119.64 66.34 -121 66 Z M-138 78 C-137.67 78.66 -137.34 79.32 -137 80 C-136.01 79.34 -135.02 78.68 -134 78 C-135.32 78 -136.64 78 -138 78 Z M-12 6 C-11.34 6.33 -10.68 6.66 -10 7 C-10 7.66 -10 8.32 -10 9 C-10.99 8.67 -11.98 8.34 -13 8 C-12.67 7.34 -12.34 6.68 -12 6 Z M-15 9 C-14.01 9.495 -14.01 9.495 -13 10 C-13.99 10.495 -13.99 10.495 -15 11 C-15 10.34 -15 9.68 -15 9 Z M-43 20 C-42.01 20.33 -41.02 20.66 -40 21 C-40.99 21 -41.98 21 -43 21 C-43 20.67 -43 20.34 -43 20 Z M-38 20 C-37.01 20.495 -37.01 20.495 -36 21 C-36.99 21.495 -36.99 21.495 -38 22 C-38 21.34 -38 20.68 -38 20 Z M-44 22 C-43.01 22.495 -43.01 22.495 -42 23 C-42.99 23.495 -42.99 23.495 -44 24 C-44 23.34 -44 22.68 -44 22 Z M-49 24 C-48.67 24.66 -48.34 25.32 -48 26 C-48.66 25.67 -49.32 25.34 -50 25 C-49.67 24.67 -49.34 24.34 -49 24 Z M-62 28 C-61.34 28.66 -60.68 29.32 -60 30 C-60.66 30 -61.32 30 -62 30 C-62 29.34 -62 28.68 -62 28 Z M-59 30 C-57 31 -57 31 -57 31 Z M-73 34 C-71 35 -71 35 -71 35 Z M-131 72 C-129 73 -129 73 -129 73 Z M-137 75 C-135 76 -135 76 -135 76 Z M-147 83 C-145 84 -145 84 -145 84 Z M-153 88 C-151 89 -151 89 -151 89 Z M-178 91 C-174 92 -174 92 -174 92 Z M-164 99 C-162 100 -162 100 -162 100 Z " fill="#2296FB" transform="translate(323,487)"/>
<path d="M0 0 C2.294 1.689 4.359 3.455 6.418 5.422 C6.993 5.968 7.568 6.515 8.16 7.078 C16.023 15.371 17.551 25.866 17.531 36.918 C17.532 37.631 17.532 38.344 17.532 39.078 C17.531 41.41 17.523 43.742 17.516 46.074 C17.514 47.701 17.512 49.328 17.511 50.954 C17.508 55.217 17.498 59.48 17.487 63.743 C17.476 68.1 17.472 72.457 17.467 76.814 C17.456 85.35 17.439 93.886 17.418 102.422 C9.498 102.422 1.578 102.422 -6.582 102.422 C-6.912 98.792 -7.242 95.162 -7.582 91.422 C-8.242 92.144 -8.902 92.866 -9.582 93.609 C-17.483 101.51 -26.887 104.542 -37.895 104.609 C-49.91 104.473 -60.905 101.099 -69.582 92.422 C-75.171 85.587 -78.154 76.581 -77.52 67.734 C-75.957 58.699 -71.493 51.41 -64.582 45.422 C-52.143 37.404 -39.769 37.134 -25.457 37.297 C-23.913 37.307 -22.368 37.316 -20.824 37.324 C-17.077 37.346 -13.329 37.38 -9.582 37.422 C-9.707 35.661 -9.841 33.901 -9.98 32.141 C-10.054 31.16 -10.128 30.18 -10.205 29.17 C-10.733 25.32 -11.914 23.23 -14.582 20.422 C-20.055 17.138 -25.274 16.554 -31.582 17.422 C-38.948 19.625 -45.058 23.495 -48.957 30.234 C-49.493 31.286 -50.03 32.338 -50.582 33.422 C-55.79 32.901 -60.999 32.38 -66.207 31.859 C-67.045 31.776 -67.883 31.692 -68.746 31.605 C-69.655 31.515 -69.655 31.515 -70.582 31.422 C-70.377 21.62 -68.102 13.899 -61.332 6.609 C-46.023 -7.474 -17.851 -10.911 0 0 Z " fill="#0C1C26" transform="translate(550.58203125,458.578125)"/>
<path d="M0 0 C9.24 0 18.48 0 28 0 C28.33 25.41 28.66 50.82 29 77 C38.752 66.516 38.752 66.516 47.914 55.508 C60.862 38.72 60.862 38.72 69.959 37.088 C78.932 36.048 88.075 36.88 97 38 C89.608 46.645 82.064 55.039 74.062 63.125 C73.399 63.801 72.736 64.477 72.053 65.174 C71.428 65.8 70.804 66.426 70.16 67.07 C69.599 67.635 69.039 68.2 68.461 68.782 C67 70 67 70 65 70 C64.773 70.557 64.546 71.114 64.312 71.688 C62.641 74.632 60.447 76.682 58 79 C59.756 82.835 62.088 86.263 64.438 89.75 C64.878 90.407 65.318 91.064 65.772 91.74 C70.326 98.518 74.956 105.243 79.596 111.962 C81.022 114.031 82.441 116.105 83.859 118.18 C84.802 119.557 85.745 120.935 86.688 122.312 C87.368 123.306 87.368 123.306 88.062 124.321 C91.475 129.288 95.009 134.148 98.637 138.961 C100 141 100 141 100 143 C95.571 143.249 91.146 143.429 86.713 143.549 C85.208 143.599 83.703 143.667 82.2 143.754 C69.781 144.454 69.781 144.454 65.615 141.052 C63.78 138.455 62.383 135.861 61 133 C60.033 131.453 59.048 129.917 58.043 128.395 C57.089 126.868 56.137 125.341 55.188 123.812 C49.943 115.437 44.532 107.188 39 99 C34.821 100.607 31.599 103.396 29 107 C28.168 109.834 28.16 112.521 28.195 115.461 C28.182 116.252 28.168 117.042 28.154 117.857 C28.117 120.363 28.12 122.868 28.125 125.375 C28.107 127.082 28.086 128.789 28.062 130.496 C28.006 134.665 28.004 138.829 28 143 C18.76 143 9.52 143 0 143 C0 95.81 0 48.62 0 0 Z " fill="#0D1D28" transform="translate(637,418)"/>
<path d="M0 0 C9.24 0 18.48 0 28 0 C33.737 13.77 33.737 13.77 35.797 20.133 C36.15 21.202 36.15 21.202 36.51 22.292 C37.006 23.798 37.501 25.304 37.993 26.811 C39.288 30.77 40.598 34.725 41.906 38.68 C42.167 39.468 42.427 40.256 42.695 41.068 C46.342 52.087 50.164 63.046 54 74 C54.2 73.368 54.401 72.737 54.607 72.086 C58.643 59.386 62.741 46.712 66.98 34.078 C70.77 22.756 74.38 11.378 78 0 C87.24 0 96.48 0 106 0 C102.623 11.258 102.623 11.258 100.906 16.047 C100.33 17.66 100.33 17.66 99.741 19.306 C99.332 20.443 98.922 21.579 98.5 22.75 C98.062 23.97 97.624 25.191 97.173 26.448 C92.446 39.601 87.628 52.721 82.797 65.836 C81.641 68.976 80.486 72.116 79.331 75.256 C78.089 78.634 76.846 82.011 75.603 85.388 C75.004 87.015 74.405 88.642 73.807 90.269 C72.145 94.785 70.479 99.299 68.808 103.812 C67.99 106.026 67.179 108.242 66.367 110.458 C65.843 111.879 65.318 113.301 64.793 114.723 C64.445 115.68 64.445 115.68 64.09 116.657 C59.12 130.047 52.307 138.664 39.59 145.055 C33.811 147.164 27.823 147.159 21.75 147.125 C20.69 147.131 20.69 147.131 19.609 147.137 C16.47 147.131 14 147 11 146 C11 139.07 11 132.14 11 125 C19.125 124.75 19.125 124.75 21.649 124.702 C26.817 124.468 29.901 123.398 34 120 C37.14 115.344 38.056 110.544 38 105 C37.232 101.507 35.963 98.284 34.625 94.973 C33.876 93.021 33.127 91.07 32.379 89.118 C31.986 88.112 31.593 87.106 31.188 86.07 C29.238 81.031 27.408 75.949 25.562 70.871 C24.805 68.805 24.048 66.739 23.289 64.674 C22.143 61.553 20.998 58.432 19.854 55.311 C14.933 41.876 9.927 28.478 4.808 15.117 C0 2.515 0 2.515 0 0 Z " fill="#1E252D" transform="translate(864,456)"/>
<path d="M0 0 C36.63 0 73.26 0 111 0 C111 7.92 111 15.84 111 24 C97.14 24 83.28 24 69 24 C69 63.27 69 102.54 69 143 C60.09 143 51.18 143 42 143 C42 103.73 42 64.46 42 24 C28.14 24 14.28 24 0 24 C0 16.08 0 8.16 0 0 Z " fill="#0C1C26" transform="translate(376,418)"/>
<path d="M0 0 C0 7.26 0 14.52 0 22 C-3.63 22 -7.26 22 -11 22 C-14.158 22.559 -14.158 22.559 -16.688 23.5 C-18.111 23.995 -19.534 24.49 -21 25 C-21.99 29.62 -22.98 34.24 -24 39 C-16.08 39 -8.16 39 0 39 C0 46.26 0 53.52 0 61 C-7.92 61 -15.84 61 -24 61 C-24 88.39 -24 115.78 -24 144 C-32.91 144 -41.82 144 -51 144 C-51 116.61 -51 89.22 -51 61 C-55.95 61 -60.9 61 -66 61 C-66 53.74 -66 46.48 -66 39 C-61.05 39 -56.1 39 -51 39 C-51.082 36.731 -51.165 34.462 -51.25 32.125 C-51.361 22.799 -49.15 15.394 -42.688 8.527 C-30.526 -2.48 -15.43 -2.204 0 0 Z " fill="#0B1B25" transform="translate(859,417)"/>
<path d="M0 0 C9.24 0 18.48 0 28 0 C28 47.19 28 94.38 28 143 C18.76 143 9.52 143 0 143 C0 95.81 0 48.62 0 0 Z " fill="#0C1E29" transform="translate(588,418)"/>
<path d="M0 0 C8.91 0 17.82 0 27 0 C27 34.65 27 69.3 27 105 C18.09 105 9.18 105 0 105 C0 70.35 0 35.7 0 0 Z " fill="#0C1B26" transform="translate(752,456)"/>
<path d="M0 0 C4.846 3.493 9.206 8.012 10.688 13.938 C11.388 20.01 10.005 24.874 6.688 29.938 C1.645 34.798 -2.969 37.324 -10.125 37.219 C-16.377 36.415 -21.368 32.694 -25.312 27.938 C-28.056 23.365 -27.95 18.108 -27.312 12.938 C-25.352 6.737 -22.07 3.171 -16.492 -0.145 C-11.357 -2.307 -5.192 -1.665 0 0 Z " fill="#FDFEFE" transform="translate(224.3125,453.0625)"/>
<path d="M0 0 C4.057 4.129 5.948 8.525 6.266 14.297 C5.966 20.286 3.662 24.848 -0.484 29.109 C-5.887 32.424 -10.719 34.623 -17.219 33.434 C-22.301 31.828 -26.074 29.046 -29.672 25.172 C-32.288 19.521 -33.172 14.108 -31.453 8.039 C-28.75 1.921 -25.354 -1.532 -19.234 -4.203 C-11.993 -6.737 -5.674 -4.691 0 0 Z " fill="#FDFDFE" transform="translate(169.234375,456.203125)"/>
<path d="M0 0 C4.34 3.021 7.475 7.119 8.824 12.27 C9.447 18.603 8.494 23.012 4.824 28.27 C1.431 31.854 -2.512 34.88 -7.473 35.605 C-13.597 35.703 -18.127 34.857 -23.176 31.27 C-27.591 26.854 -28.957 22.534 -29.551 16.395 C-29.388 11.071 -27.356 6.629 -23.75 2.727 C-16.465 -3.692 -8.415 -4.678 0 0 Z " fill="#FDFEFE" transform="translate(286.17578125,454.73046875)"/>
<path d="M0 0 C1.299 0.014 2.599 0.027 3.938 0.041 C7.125 0.076 10.312 0.125 13.5 0.188 C13.539 2.282 13.567 4.378 13.59 6.473 C13.615 8.223 13.615 8.223 13.64 10.008 C13.451 14.304 12.541 16.146 9.5 19.188 C2.666 24.543 -3.6 27.955 -12.5 27.188 C-18.032 26.006 -21.946 23.712 -25.43 19.219 C-27.359 15.557 -27.356 12.18 -26.5 8.188 C-24.293 3.958 -21.538 2.39 -17.104 0.794 C-11.504 -0.51 -5.714 -0.113 0 0 Z " fill="#F8F9F9" transform="translate(527.5,514.8125)"/>
<path d="M0 0 C9.24 0 18.48 0 28 0 C31.004 7.209 33.923 14.243 36.375 21.625 C36.647 22.413 36.919 23.2 37.199 24.012 C37.86 25.988 38.438 27.993 39 30 C38.67 30.66 38.34 31.32 38 32 C36.68 29.03 35.36 26.06 34 23 C33.237 23.33 32.474 23.66 31.688 24 C29 25 29 25 26 25 C25.753 25.763 25.505 26.526 25.25 27.312 C23.86 30.301 22.619 31.117 20 33 C18.748 35.083 18.748 35.083 18 37 C17.34 37 16.68 37 16 37 C17.985 44.524 20.765 51.668 23.75 58.841 C24.054 59.594 24.359 60.346 24.672 61.121 C24.951 61.796 25.231 62.471 25.519 63.166 C26 65 26 65 25 68 C21.353 59.402 17.927 50.736 14.625 42 C14.388 41.373 14.15 40.747 13.906 40.101 C10.83 31.973 7.812 23.827 4.938 15.625 C4.663 14.843 4.389 14.06 4.106 13.254 C2.584 8.855 1.284 4.492 0 0 Z M27 3 C28 5 28 5 28 5 Z M28 5 C29 8 29 8 29 8 Z M29 8 C30 11 30 11 30 11 Z M30 11 C31 14 31 14 31 14 Z M31 14 C31.33 15.98 31.66 17.96 32 20 C32.33 19.01 32.66 18.02 33 17 C32.34 16.01 31.68 15.02 31 14 Z M12 28 C13 30 13 30 13 30 Z M13 30 C14 33 14 33 14 33 Z M14 33 C15 36 15 36 15 36 Z M19 36 C21 37 21 37 21 37 Z M26 68 C27.801 70.702 29.002 72.931 30 76 C29.67 76.99 29.34 77.98 29 79 C26 72.5 26 72.5 26 68 Z " fill="#0B1922" transform="translate(864,456)"/>
<path d="M0 0 C3.032 2.497 5.365 5.23 7.125 8.75 C7.512 13.393 7.597 15.806 5.5 20 C2.209 23.81 -0.329 26.412 -5.496 27.098 C-12.354 27.312 -16.899 26.324 -22.188 21.75 C-25.358 17.992 -25.277 13.97 -25.215 9.258 C-24.639 5.01 -23.104 3.567 -19.875 0.75 C-13.403 -3.184 -6.834 -2.971 0 0 Z " fill="#0B1A24" transform="translate(774.875,418.25)"/>
<path d="M0 0 C0.33 0 0.66 0 1 0 C1 26.4 1 52.8 1 80 C-7.25 80 -15.5 80 -24 80 C-24 64.49 -24 48.98 -24 33 C-23.67 33 -23.34 33 -23 33 C-22.67 45.21 -22.34 57.42 -22 70 C-20.02 69.01 -18.04 68.02 -16 67 C-16 66.34 -16 65.68 -16 65 C-15.01 65 -14.02 65 -13 65 C-13.227 64.319 -13.454 63.639 -13.688 62.938 C-14.127 58.806 -13.081 56.557 -11 53 C-7.362 51.22 -5.073 51 -1 51 C-0.67 34.17 -0.34 17.34 0 0 Z M-4 52 C-3 55 -3 55 -3 55 Z M-22 71 C-23.354 73.709 -23.065 76.009 -23 79 C-21.02 79 -19.04 79 -17 79 C-17 78.34 -17 77.68 -17 77 C-18.32 77 -19.64 77 -21 77 C-20.794 76.381 -20.587 75.763 -20.375 75.125 C-20.251 74.424 -20.128 73.722 -20 73 C-20.66 72.34 -21.32 71.68 -22 71 Z M-16 59 C-14 60 -14 60 -14 60 Z " fill="#1E272F" transform="translate(833,479)"/>
<path d="M0 0 C9.24 0 18.48 0 28 0 C28 47.19 28 94.38 28 143 C18.76 143 9.52 143 0 143 C0 95.81 0 48.62 0 0 Z M1 2 C1 47.87 1 93.74 1 141 C9.25 141 17.5 141 26 141 C26 95.13 26 49.26 26 2 C17.75 2 9.5 2 1 2 Z " fill="#070E14" transform="translate(588,418)"/>
<path d="M0 0 C1.452 0.045 2.905 0.086 4.357 0.123 C7.887 0.221 11.411 0.376 14.938 0.562 C13.288 2.212 11.638 3.863 9.938 5.562 C9.938 4.902 9.938 4.243 9.938 3.562 C-5.047 0.963 -5.047 0.963 -18.949 4.723 C-21.354 7.219 -23.306 9.58 -25.062 12.562 C-25.062 8.724 -24.057 7.78 -21.566 4.91 C-15.167 -1.278 -8.269 -0.45 0 0 Z M5.938 8.562 C5.938 11.562 5.938 11.562 4.188 13.605 C3.445 14.313 2.702 15.021 1.938 15.75 C1.195 16.465 0.452 17.181 -0.312 17.918 C-1.179 18.732 -1.179 18.732 -2.062 19.562 C-2.722 19.233 -3.383 18.902 -4.062 18.562 C-0.763 15.262 2.538 11.962 5.938 8.562 Z M-29.062 13.562 C-28.072 14.058 -28.072 14.058 -27.062 14.562 C-28.053 15.058 -28.053 15.058 -29.062 15.562 C-29.062 14.902 -29.062 14.243 -29.062 13.562 Z M-32.062 16.562 C-31.403 16.892 -30.742 17.223 -30.062 17.562 C-33.692 21.192 -37.322 24.822 -41.062 28.562 C-41.062 25.562 -41.062 25.562 -39.094 23.301 C-38.258 22.5 -37.423 21.7 -36.562 20.875 C-35.727 20.067 -34.892 19.259 -34.031 18.426 C-33.382 17.811 -32.732 17.196 -32.062 16.562 Z M-6.062 20.562 C-6.062 23.562 -6.062 23.562 -8.031 25.824 C-8.867 26.625 -9.702 27.425 -10.562 28.25 C-11.398 29.058 -12.233 29.866 -13.094 30.699 C-13.743 31.314 -14.393 31.929 -15.062 32.562 C-15.722 32.233 -16.383 31.902 -17.062 31.562 C-13.433 27.933 -9.803 24.303 -6.062 20.562 Z M-45.062 30.562 C-45.062 31.553 -45.062 32.543 -45.062 33.562 C-46.548 34.553 -46.548 34.553 -48.062 35.562 C-46.188 31.688 -46.188 31.688 -45.062 30.562 Z M-18.062 32.562 C-18.062 35.562 -18.062 35.562 -19.375 37.168 C-19.932 37.69 -20.489 38.212 -21.062 38.75 C-21.619 39.28 -22.176 39.81 -22.75 40.355 C-23.183 40.754 -23.616 41.152 -24.062 41.562 C-22.373 45.226 -20.189 48.471 -17.938 51.812 C-16.851 53.429 -16.851 53.429 -15.742 55.078 C-15.188 55.898 -14.634 56.718 -14.062 57.562 C-14.393 58.222 -14.722 58.883 -15.062 59.562 C-15.605 58.815 -16.148 58.067 -16.707 57.297 C-17.422 56.312 -18.138 55.327 -18.875 54.312 C-19.583 53.338 -20.29 52.363 -21.02 51.359 C-22.256 49.667 -23.515 47.991 -24.816 46.348 C-26.062 44.562 -26.062 44.562 -26.188 42.25 C-24.465 38.134 -21.33 35.523 -18.062 32.562 Z M-51.062 37.562 C-51.062 38.553 -51.062 39.543 -51.062 40.562 C-52.053 41.058 -52.053 41.058 -53.062 41.562 C-52.403 40.243 -51.742 38.923 -51.062 37.562 Z M-14.062 59.562 C-10.8 62.649 -8.04 65.497 -6.062 69.562 C-6.393 70.222 -6.722 70.883 -7.062 71.562 C-8.235 69.942 -9.4 68.316 -10.562 66.688 C-11.212 65.783 -11.862 64.878 -12.531 63.945 C-14.062 61.562 -14.062 61.562 -14.062 59.562 Z M-6.062 71.562 C-4.577 72.553 -4.577 72.553 -3.062 73.562 C-3.393 74.222 -3.722 74.883 -4.062 75.562 C-4.722 74.242 -5.383 72.923 -6.062 71.562 Z M-3.062 75.562 C1.478 79.703 4.656 84.386 7.938 89.562 C7.607 90.222 7.278 90.883 6.938 91.562 C5.639 89.838 4.349 88.108 3.062 86.375 C2.343 85.412 1.624 84.449 0.883 83.457 C-0.868 80.851 -2.037 78.515 -3.062 75.562 Z M7.938 91.562 C11.862 95.263 14.96 99.053 17.938 103.562 C17.938 104.222 17.938 104.883 17.938 105.562 C7.378 105.562 -3.183 105.562 -14.062 105.562 C-14.393 104.903 -14.722 104.242 -15.062 103.562 C-5.492 103.232 4.077 102.903 13.938 102.562 C11.957 99.592 9.977 96.622 7.938 93.562 C7.938 92.903 7.938 92.242 7.938 91.562 Z " fill="#080B10" transform="translate(719.0625,455.4375)"/>
<path d="M0 0 C3.482 1.161 3.888 1.909 5.75 4.938 C6.199 5.648 6.647 6.358 7.109 7.09 C7.403 7.72 7.697 8.351 8 9 C7.67 9.66 7.34 10.32 7 11 C4.69 7.37 2.38 3.74 0 0 Z M8 11 C9.485 11.99 9.485 11.99 11 13 C10.67 13.66 10.34 14.32 10 15 C9.34 13.68 8.68 12.36 8 11 Z M11 15 C15.541 19.14 18.718 23.824 22 29 C21.67 29.66 21.34 30.32 21 31 C19.702 29.276 18.412 27.545 17.125 25.812 C16.406 24.85 15.686 23.887 14.945 22.895 C13.194 20.289 12.025 17.952 11 15 Z M22 31 C25.925 34.701 29.022 38.491 32 43 C32 43.66 32 44.32 32 45 C21.44 45 10.88 45 0 45 C-0.33 44.34 -0.66 43.68 -1 43 C8.57 42.67 18.14 42.34 28 42 C26.02 39.03 24.04 36.06 22 33 C22 32.34 22 31.68 22 31 Z " fill="#070E14" transform="translate(705,516)"/>
<path d="M0 0 C0.99 0.33 1.98 0.66 3 1 C2.34 1 1.68 1 1 1 C0.67 1.99 0.34 2.98 0 4 C0 2.68 0 1.36 0 0 Z M-1 4 C-0.34 4.33 0.32 4.66 1 5 C0.814 5.516 0.629 6.031 0.438 6.562 C-0.154 9.859 0.433 12.722 1 16 C-0.32 16 -1.64 16 -3 16 C-2.86 14.187 -2.713 12.375 -2.562 10.562 C-2.481 9.553 -2.4 8.544 -2.316 7.504 C-2 5 -2 5 -1 4 Z " fill="#20252B" transform="translate(483,474)"/>
<path d="M0 0 C0.99 0.66 1.98 1.32 3 2 C2.34 2 1.68 2 1 2 C1 4.64 1 7.28 1 10 C0.67 10 0.34 10 0 10 C-0.33 12.64 -0.66 15.28 -1 18 C-1.33 18 -1.66 18 -2 18 C-2.054 15.75 -2.093 13.5 -2.125 11.25 C-2.148 9.997 -2.171 8.744 -2.195 7.453 C-2.015 4.272 -1.69 2.635 0 0 Z " fill="#229EF9" transform="translate(151,596)"/>
<path d="M0 0 C1.322 2.645 1.097 4.678 1.062 7.625 C1.053 8.628 1.044 9.631 1.035 10.664 C1.024 11.435 1.012 12.206 1 13 C0.01 13.495 0.01 13.495 -1 14 C-2.517 4.59 -2.517 4.59 0 0 Z " fill="#1C2127" transform="translate(475,521)"/>
<path d="M0 0 C3.761 1.254 4.476 2.707 6.688 5.938 C7.31 6.833 7.933 7.729 8.574 8.652 C10 11 10 11 10 13 C6.34 11.564 5.093 9.961 3.312 6.5 C2.896 5.706 2.48 4.912 2.051 4.094 C1.366 2.73 0.683 1.365 0 0 Z " fill="#0A0F14" transform="translate(727,548)"/>
<path d="M0 0 C2 1 2 1 2 1 Z M-7 1 C-4.69 1 -2.38 1 0 1 C0.33 1.66 0.66 2.32 1 3 C-0.98 3.33 -2.96 3.66 -5 4 C-5.66 3.01 -6.32 2.02 -7 1 Z " fill="#19BFEA" transform="translate(282,363)"/>
<path d="M0 0 C0.66 0 1.32 0 2 0 C2 0.66 2 1.32 2 2 C3.32 2 4.64 2 6 2 C6 2.66 6 3.32 6 4 C4.02 4 2.04 4 0 4 C0 2.68 0 1.36 0 0 Z " fill="#0C1E29" transform="translate(810,554)"/>
<path d="M0 0 C0.66 0.33 1.32 0.66 2 1 C1.67 1.99 1.34 2.98 1 4 C-0.32 4 -1.64 4 -3 4 C-2.67 3.01 -2.34 2.02 -2 1 C-1.34 0.67 -0.68 0.34 0 0 Z " fill="#21A3F8" transform="translate(247,525)"/>
<path d="M0 0 C0.99 0 1.98 0 3 0 C3 0.66 3 1.32 3 2 C2.01 2.33 1.02 2.66 0 3 C0 2.01 0 1.02 0 0 Z " fill="#2497FC" transform="translate(165,579)"/>
</svg>